<svg width="48" height="48" viewBox="0 0 48 48" fill="none" xmlns="http://www.w3.org/2000/svg">
<g id="timer-line">
<path id="Vector" d="M35.2361 11.936L38.1421 9.03L40.9701 11.858L38.0641 14.764C40.9357 18.3583 42.3219 22.9158 41.9383 27.5003C41.5546 32.0848 39.4301 36.3484 36.0011 39.4154C32.5721 42.4825 28.0988 44.1202 23.5001 43.9922C18.9013 43.8641 14.5261 41.9801 11.2731 38.7271C8.01999 35.474 6.13598 31.0988 6.00795 26.5C5.87993 21.9013 7.51762 17.428 10.5847 13.999C13.6517 10.57 17.9153 8.44551 22.4999 8.06184C27.0844 7.67817 31.6418 9.06446 35.2361 11.936ZM24.0001 40C25.8386 40 27.6591 39.6379 29.3577 38.9343C31.0562 38.2307 32.5996 37.1995 33.8996 35.8995C35.1996 34.5995 36.2309 33.0561 36.9344 31.3576C37.638 29.659 38.0001 27.8385 38.0001 26C38.0001 24.1615 37.638 22.341 36.9344 20.6424C36.2309 18.9439 35.1996 17.4005 33.8996 16.1005C32.5996 14.8005 31.0562 13.7693 29.3577 13.0657C27.6591 12.3621 25.8386 12 24.0001 12C20.2871 12 16.7261 13.475 14.1006 16.1005C11.4751 18.726 10.0001 22.287 10.0001 26C10.0001 29.713 11.4751 33.274 14.1006 35.8995C16.7261 38.525 20.2871 40 24.0001 40ZM22.0001 16H26.0001V28H22.0001V16ZM16.0001 2H32.0001V6H16.0001V2Z" fill="#B3DDD1"/>
</g>
</svg>
