<svg width="49" height="48" viewBox="0 0 49 48" fill="none" xmlns="http://www.w3.org/2000/svg">
<g id="timer-line">
<path id="Vector" d="M35.5701 11.936L38.4761 9.03L41.3041 11.858L38.3981 14.764C41.2696 18.3583 42.6559 22.9158 42.2723 27.5003C41.8886 32.0848 39.7641 36.3484 36.3351 39.4154C32.9061 42.4825 28.4328 44.1202 23.8341 43.9922C19.2353 43.8641 14.8601 41.9801 11.607 38.7271C8.35397 35.474 6.46996 31.0988 6.34194 26.5C6.21392 21.9013 7.8516 17.428 10.9187 13.999C13.9857 10.57 18.2493 8.44551 22.8338 8.06184C27.4184 7.67817 31.9758 9.06446 35.5701 11.936ZM24.3341 40C26.1726 40 27.9931 39.6379 29.6917 38.9343C31.3902 38.2307 32.9336 37.1995 34.2336 35.8995C35.5336 34.5995 36.5649 33.0561 37.2684 31.3576C37.972 29.659 38.3341 27.8385 38.3341 26C38.3341 24.1615 37.972 22.341 37.2684 20.6424C36.5649 18.9439 35.5336 17.4005 34.2336 16.1005C32.9336 14.8005 31.3902 13.7693 29.6917 13.0657C27.9931 12.3621 26.1726 12 24.3341 12C20.6211 12 17.0601 13.475 14.4346 16.1005C11.8091 18.726 10.3341 22.287 10.3341 26C10.3341 29.713 11.8091 33.274 14.4346 35.8995C17.0601 38.525 20.6211 40 24.3341 40ZM22.3341 16H26.3341V28H22.3341V16ZM16.3341 2H32.3341V6H16.3341V2Z" fill="#37A084"/>
</g>
</svg>
